<svg xmlns="http://www.w3.org/2000/svg" viewBox="0 0 1160 970" role="img"><title>Twelve plot site and grid layout</title><rect width="100%" height="100%" fill="#f1f5f9"/><style>text{font-family:Arial,sans-serif;fill:#1e293b}.title{font-size:30px;font-weight:bold}.label{font-size:16px}.small{font-size:13px}</style><text x="36" y="48" class="title">Twelve studios. One fixed site.</text><text x="36" y="80" class="label">All P01–P12 claimable at launch · every envelope reserves 48×48 studs</text><rect x="76.0" y="102.4" width="288.0" height="763.2" rx="0" fill="#d9e6e9" stroke="none"/><rect x="176.8" y="116.8" width="86.4" height="86.4" rx="0" fill="white" stroke="#475569"/><text x="187.6" y="160.0" class="small">LOBBY</text><rect x="205.6" y="203.2" width="28.8" height="655.2" rx="0" fill="#e2e8f0" stroke="none"/><rect x="104.8" y="224.8" width="86.4" height="86.4" rx="0" fill="white" stroke="#8b5cf6"/><rect x="126.39999999999999" y="246.4" width="43.2" height="43.2" rx="0" fill="#cffafe" stroke="#22d3ee"/><text x="122.8" y="273.4" class="label">P01</text><rect x="191.2" y="260.8" width="14.4" height="14.4" rx="0" fill="#f1f5f9" stroke="none"/><rect x="248.8" y="224.8" width="86.4" height="86.4" rx="0" fill="white" stroke="#8b5cf6"/><rect x="270.4" y="246.4" width="43.2" height="43.2" rx="0" fill="#cffafe" stroke="#22d3ee"/><text x="266.8" y="273.4" class="label">P02</text><rect x="234.4" y="260.8" width="14.4" height="14.4" rx="0" fill="#f1f5f9" stroke="none"/><rect x="104.8" y="332.8" width="86.4" height="86.4" rx="0" fill="white" stroke="#8b5cf6"/><rect x="126.39999999999999" y="354.4" width="43.2" height="43.2" rx="0" fill="#cffafe" stroke="#22d3ee"/><text x="122.8" y="381.4" class="label">P03</text><rect x="191.2" y="368.8" width="14.4" height="14.4" rx="0" fill="#f1f5f9" stroke="none"/><rect x="248.8" y="332.8" width="86.4" height="86.4" rx="0" fill="white" stroke="#8b5cf6"/><rect x="270.4" y="354.4" width="43.2" height="43.2" rx="0" fill="#cffafe" stroke="#22d3ee"/><text x="266.8" y="381.4" class="label">P04</text><rect x="234.4" y="368.8" width="14.4" height="14.4" rx="0" fill="#f1f5f9" stroke="none"/><rect x="104.8" y="440.8" width="86.4" height="86.4" rx="0" fill="white" stroke="#8b5cf6"/><rect x="126.39999999999999" y="462.40000000000003" width="43.2" height="43.2" rx="0" fill="#cffafe" stroke="#22d3ee"/><text x="122.8" y="489.40000000000003" class="label">P05</text><rect x="191.2" y="476.8" width="14.4" height="14.4" rx="0" fill="#f1f5f9" stroke="none"/><rect x="248.8" y="440.8" width="86.4" height="86.4" rx="0" fill="white" stroke="#8b5cf6"/><rect x="270.4" y="462.40000000000003" width="43.2" height="43.2" rx="0" fill="#cffafe" stroke="#22d3ee"/><text x="266.8" y="489.40000000000003" class="label">P06</text><rect x="234.4" y="476.8" width="14.4" height="14.4" rx="0" fill="#f1f5f9" stroke="none"/><rect x="104.8" y="548.8" width="86.4" height="86.4" rx="0" fill="white" stroke="#8b5cf6"/><rect x="126.39999999999999" y="570.4000000000001" width="43.2" height="43.2" rx="0" fill="#cffafe" stroke="#22d3ee"/><text x="122.8" y="597.4000000000001" class="label">P07</text><rect x="191.2" y="584.8" width="14.4" height="14.4" rx="0" fill="#f1f5f9" stroke="none"/><rect x="248.8" y="548.8" width="86.4" height="86.4" rx="0" fill="white" stroke="#8b5cf6"/><rect x="270.4" y="570.4000000000001" width="43.2" height="43.2" rx="0" fill="#cffafe" stroke="#22d3ee"/><text x="266.8" y="597.4000000000001" class="label">P08</text><rect x="234.4" y="584.8" width="14.4" height="14.4" rx="0" fill="#f1f5f9" stroke="none"/><rect x="104.8" y="656.8" width="86.4" height="86.4" rx="0" fill="white" stroke="#8b5cf6"/><rect x="126.39999999999999" y="678.4" width="43.2" height="43.2" rx="0" fill="#cffafe" stroke="#22d3ee"/><text x="122.8" y="705.4" class="label">P09</text><rect x="191.2" y="692.8000000000001" width="14.4" height="14.4" rx="0" fill="#f1f5f9" stroke="none"/><rect x="248.8" y="656.8" width="86.4" height="86.4" rx="0" fill="white" stroke="#8b5cf6"/><rect x="270.4" y="678.4" width="43.2" height="43.2" rx="0" fill="#cffafe" stroke="#22d3ee"/><text x="266.8" y="705.4" class="label">P10</text><rect x="234.4" y="692.8000000000001" width="14.4" height="14.4" rx="0" fill="#f1f5f9" stroke="none"/><rect x="104.8" y="764.8000000000001" width="86.4" height="86.4" rx="0" fill="white" stroke="#8b5cf6"/><rect x="126.39999999999999" y="786.4" width="43.2" height="43.2" rx="0" fill="#cffafe" stroke="#22d3ee"/><text x="122.8" y="813.4" class="label">P11</text><rect x="191.2" y="800.8000000000001" width="14.4" height="14.4" rx="0" fill="#f1f5f9" stroke="none"/><rect x="248.8" y="764.8000000000001" width="86.4" height="86.4" rx="0" fill="white" stroke="#8b5cf6"/><rect x="270.4" y="786.4" width="43.2" height="43.2" rx="0" fill="#cffafe" stroke="#22d3ee"/><text x="266.8" y="813.4" class="label">P12</text><rect x="234.4" y="800.8000000000001" width="14.4" height="14.4" rx="0" fill="#f1f5f9" stroke="none"/><text x="44" y="930" class="small">World: 160×424 studs · rows 60 studs apart</text><text x="540" y="150" class="title">Nested plot envelopes</text><text x="540" y="180" class="label">Origin never moves. Entry always faces local +Z.</text><defs><pattern id="grid" width="22" height="22" patternUnits="userSpaceOnUse"><path d="M22 0H0V22" fill="none" stroke="#a9bacb" stroke-width="0.5"/></pattern></defs><rect x="555" y="215" width="528" height="528" rx="0" fill="white" stroke="#475569"/><rect x="621" y="281" width="396" height="396" rx="0" fill="#ede9fe" stroke="#8b5cf6"/><rect x="687" y="347" width="264" height="264" rx="0" fill="#cffafe" stroke="#22d3ee"/><rect x="555" y="215" width="528" height="528" rx="0" fill="url(#grid)" stroke="none"/><text x="563" y="239" class="label">LARGE · 48×48</text><text x="629" y="305" class="label">MEDIUM · 36×36</text><text x="695" y="371" class="label">SMALL · 24×24</text><text x="807" y="485" class="label">O</text><rect x="775" y="611" width="88" height="132" rx="0" fill="#fff7ed" stroke="#475569"/><text x="753" y="766" class="label">ENTRY · +Z</text><text x="540" y="815" class="label">Every small square = 2×2 studs</text><text x="540" y="848" class="label">6-stud clear approach · 8-stud entrance</text><text x="540" y="881" class="label">Walls and circulation reduce usable furniture area.</text><text x="540" y="914" class="label">Pivots: floor-centred · rotations: 0/90/180/270°</text></svg>